<svg xmlns="http://www.w3.org/2000/svg" version="1.1" xmlns:xlink="http://www.w3.org/1999/xlink" xmlns:svgjs="http://svgjs.dev/svgjs" width="2000" height="1500" viewBox="0 0 2000 1500"><rect width="2000" height="1500" fill="#fafafa"></rect><g transform="matrix(0.4444444444444444,0,0,0.4444444444444444,555.5556208333335,250)"><svg viewBox="0 0 320 360" data-background-color="#fafafa" preserveAspectRatio="xMidYMid meet" height="2250" width="2000" xmlns="http://www.w3.org/2000/svg" xmlns:xlink="http://www.w3.org/1999/xlink"><g id="tight-bounds" transform="matrix(1,0,0,1,0.000023499999997511622,0)"><svg viewBox="0 0 320 360" height="360" width="320"><g><svg></svg></g><g><svg viewBox="0 0 320 360" height="360" width="320"><g><path transform="translate(-74.99272,-51.79039) scale(4.65793,4.65793)" d="M20.6 59.9l0.8 1-0.4-1.3c-0.1-0.6-0.8 0.1-0.4 0.3M21.5 59.3c0.3 0.5 0.6 1 0.6 1.5 0 0.7 0.6 1 1.1 1.2-0.7-0.8-1.1-3-1.7-2.7M59.9 16.9c1.7 0 3.3-0.2 5.1 0.2 4.4 1.1 8.1 3.3 10.6 6.4l7 11.2c0.3 2.8 0.9 5.9 0.8 9.3 0.7 0 0.6-1 1.4-1.2-0.8 2-1.2 4.5-1.4 7.4-0.5-1.6 0-4 0.1-5.3-0.7 1.1-1.1 0.3-1.1-0.2 0.1-0.8-0.3-0.7-0.6-1-1.1-1-1.8-2.1-2.6-3.8 0.5-1.3 0.6-3.2-1-4.2-0.5-0.3-1.1-0.8-1.4-1.6-0.4-1.1-1.1-2.4-0.9-4.1 0.1-0.5-1.5 1.1-2.4 0.4-3.9-2.7-7.8-5.8-12.5-8.4-2.5 0-4.3-0.9-5.2-2-0.8-1-0.2-2.3 1-2.4 0.7 0 1.5-0.2 2.1 0.2 0.1-0.4 0.5-0.9 1-0.9M50 14.6l0.2 0.1c1 0.2 1.5 1.6 2.6 1.1 0 0.7 0.1 1.4-0.1 1.9-0.3 0.8-1.2 0.8-1.9 0.8-6.7-0.4-10.6 2.4-14.7 4.8-1.1 0.7-2.3 1.2-3.2 2.1-4.3 4-9 7.7-10.1 15.1l-0.9 8.2c-0.1 0.9-1.1 1.8-0.9 2.9l0.7 4.9c-0.7-0.7-1.1 0.2-0.9 0.6 0.1 0.3 0.5 1.3 1.1 0.4 0.8 1.5 1.6 4.4 2.7 5.7 3.4 4 7.8 7.6 11.4 11.2 0.9-0.2 1.6-0.2 1.8-0.8 0.3 0.6-0.3 1.2-0.8 1.3 1.6 1 3.4 1.9 5.8 2.1 3.1 0.2 6 0.7 8.7 1.4 1.4-0.4 2.8-0.6 4.3-0.7 0.5 0 0.8-0.8 1.4-1l0.1-1c0.6 0.9 0.5-0.3 0.1-0.9 0.7 0.6 0.9 1.1 1.2 1.5 0-0.3 0.8-1.4 0.8-0.1l0.2-1.3c0.3-0.2 0.4 1.1 0.7 0.2 0.3-0.9 0.9-0.2 1.5-0.5-0.2 0.4-0.1 1.2 0.6 0.7l0.8-0.7c0.5 1.2 1.3 0.7 1.7 0.5 4.4-2.8 8.8-6.1 13-9.4l-0.1 1.3 0.5-1.6c0.5 0.5 0.9 0.1 1.1-0.2 0.6-1 1.4-2 2.7-2.9-1.6 4.3-3.5 7.7-5.9 10.5l-1 1.2c0 0.7-0.2 1.6-1 1.7-0.4 0.1-1.2-0.2-1.8 0.4-0.3 0.4 0.7 1.2-0.1 0.6-0.7-0.5-1.4 0-2.2 0.2-0.6 0.2 0.4 0.8 0.6 1.2 0.2 0.4 0.4 0.8 0.3 1.3l-1.1-1.2c-1.3 0.7-2.1 2-3.2 3-0.5 0.4-0.3 1.1-0.3 1.7-0.7 0-1.5-0.2-1.9 0.2-0.3 0.4-0.2 1-0.2 1.6-1-0.1-1.1-1.6-2-1.3-0.9 0.2-1.9 0.3-2.7 0.8 0.6 1.2-1 0.5-0.8 0.7-1.5-0.9-2.8-1.6-4.4-1-3.4-1.1-7.6-0.6-10.7-0.2 0-0.5 0.1-1-0.1-1.1-0.2 0.5-0.8 0.3-0.7 0.3-1.9-1.3-3.8-2.1-5.8-3.2-1.8 0.2-3.5-0.7-4-1.2-1.4-1.3-3-0.6-4.3-0.9-2.8-0.7-3.8-3.6-4.1-5.6-0.2-1-1-1.4-1.3-1.3-1.3-4.2-3.3-8-4.9-11.9-0.4-1-0.3-2-0.3-3.1 0.5 0.2 1 0.1 0.9-0.6-0.5-3.3-1.7-5.8-3-8.2 0.7-3.4 0.8-7.4 2.4-10.4 1.4-2.7 4-4.1 5.8-6.4 0.6-0.8 0.6-1.9 1.2-2.6 2-2 4-4.1 6.2-5.9 1-0.8 2.2 0 3.7-0.3 0.5-1.8 2.5-3.4 4.4-2.9 0.8 0.2 2.4-1.9 2.9-2.1 0.8-0.3 0.4 0.8 0.4 1.5 1.9-1.5 4.5-2.3 6.9-3.2" fill="#130912" fill-rule="nonzero" stroke="none" stroke-width="1" stroke-linecap="butt" stroke-linejoin="miter" stroke-miterlimit="10" stroke-dasharray="" stroke-dashoffset="0" font-family="none" font-weight="none" font-size="none" text-anchor="none" style="mix-blend-mode: normal" data-fill-palette-color="tertiary"></path></g><g transform="matrix(1,0,0,1,65.75630971757758,90)"><svg viewBox="0 0 188.48738056484484 180" height="180" width="188.48738056484484"><g><svg viewBox="0 0 188.48738056484484 180" height="180" width="188.48738056484484"><g><svg viewBox="0 0 192 183.35445002436336" height="180" width="188.48738056484484"><g transform="matrix(1,0,0,1,0,110.82281931696734)"><svg viewBox="0 0 192 72.531630707396" height="72.531630707396" width="192"><g id="textblocktransform"><svg viewBox="0 0 192 72.531630707396" height="72.531630707396" width="192" id="textblock"><g><svg viewBox="0 0 192 72.531630707396" height="72.531630707396" width="192"><g transform="matrix(1,0,0,1,0,0)"><svg width="192" viewBox="1.51 -37.50833333333 131.10000000000002 49.527156846958" height="72.531630707396" data-palette-color="#130912"><path d="M12.55-7.71L12.55-7.71Q12.7-7.62 12.82-7.64 12.94-7.67 13.09-7.67L13.09-7.67Q13.77-7.52 14.09-7.54 14.4-7.57 14.75-7.57L14.75-7.57 15.82-7.57Q16.11-7.57 16.38-7.59 16.65-7.62 16.99-7.67L16.99-7.67Q17.29-7.67 17.38-7.69 17.48-7.71 17.58-7.71L17.58-7.71Q17.82-7.76 18.07-7.74 18.31-7.71 18.51-7.71L18.51-7.71Q18.85-7.76 18.97-7.81 19.09-7.86 19.19-7.91L19.19-7.91Q19.34-7.96 19.51-7.93 19.68-7.91 19.87-7.91L19.87-7.91Q20.41-8.06 20.41-8.08 20.41-8.11 20.46-8.11L20.46-8.11Q20.9-8.15 21.07-8.13 21.24-8.11 21.44-8.15L21.44-8.15Q21.68-8.15 22.02-8.15 22.36-8.15 22.71-8.25L22.71-8.25Q23.1-8.35 23.29-8.35L23.29-8.35Q23.73-8.35 23.83-8.37 23.93-8.4 24.02-8.4L24.02-8.4Q24.51-8.35 25.05-8.42 25.59-8.5 25.83-8.4L25.83-8.4Q26.03-8.35 26.15-8.25 26.27-8.15 26.42-8.15L26.42-8.15Q26.32-7.57 26.34-7.32 26.37-7.08 26.42-6.98L26.42-6.98Q26.46-6.84 26.37-6.45L26.37-6.45Q26.32-6.25 26.27-6.15 26.22-6.05 26.12-5.81L26.12-5.81Q26.03-5.57 25.95-5.25 25.88-4.93 25.78-4.69L25.78-4.69Q25.68-4.25 25.71-4.22 25.73-4.2 25.73-4.15L25.73-4.15Q25.68-3.91 25.61-3.56 25.54-3.22 25.39-2.93L25.39-2.93Q25.29-2.29 25.27-2.12 25.24-1.95 25.15-1.86L25.15-1.86 24.95-1.07Q24.71-0.59 24.71-0.59L24.71-0.59Q24.66-0.39 24.71-0.24 24.76-0.1 24.66 0L24.66 0Q24.41 0.34 24.37 0.37 24.32 0.39 24.27 0.49L24.27 0.49 23.73 0.49Q23.14 0.54 22.85 0.61 22.56 0.68 22.31 0.68L22.31 0.68Q21.73 0.59 21.44 0.61 21.14 0.63 21.04 0.63L21.04 0.63Q20.61 0.54 20.51 0.54L20.51 0.54Q20.36 0.49 20.19 0.49 20.02 0.49 19.92 0.49L19.92 0.49Q19.29 0.54 19.14 0.44 18.99 0.34 18.85 0.34L18.85 0.34Q18.41 0.39 18.19 0.37 17.97 0.34 17.77 0.34L17.77 0.34Q17.43 0.34 17.31 0.29 17.19 0.24 17.04 0.2L17.04 0.2Q16.8 0.2 16.55 0.22 16.31 0.24 16.06 0.24L16.06 0.24Q15.63 0.2 15.53 0.22 15.43 0.24 15.38 0.24L15.38 0.24Q15.04 0.2 14.89 0.17 14.75 0.15 14.6 0.2L14.6 0.2Q14.06 0.24 13.89 0.22 13.72 0.2 13.48 0.2L13.48 0.2Q12.94 0.15 12.82 0.17 12.7 0.2 12.6 0.2L12.6 0.2Q12.4 0.15 11.91-0.05L11.91-0.05Q11.52 0.05 11.23 0 10.94-0.05 10.6-0.05L10.6-0.05Q10.35-0.05 10.18-0.02 10.01 0 9.77 0L9.77 0Q9.38 0.1 8.89 0L8.89 0Q8.74 0 8.59-0.02 8.45-0.05 8.3-0.05L8.3-0.05Q7.76 0 7.67-0.02 7.57-0.05 7.47-0.05L7.47-0.05Q7.28-0.05 7.13 0 6.98 0.05 6.84 0.05L6.84 0.05Q6.59 0.1 6.37 0.07 6.15 0.05 5.96 0.05L5.96 0.05Q5.62 0.05 5.54 0.07 5.47 0.1 5.37 0.1L5.37 0.1Q5.18 0.1 5.03 0.05 4.88 0 4.74 0L4.74 0Q4.54-0.05 4.37-0.02 4.2 0 4.05 0L4.05 0Q3.86-0.05 3.71-0.1 3.56-0.15 3.47-0.1L3.47-0.1Q2.83-0.39 2.69-0.56 2.54-0.73 2.34-0.88L2.34-0.88Q2.29-1.07 2.25-1.17 2.2-1.27 2.1-1.37L2.1-1.37Q2.05-1.61 2-1.76 1.95-1.9 1.95-2.1L1.95-2.1 1.81-2.98Q1.61-3.61 1.66-3.83 1.71-4.05 1.61-4.25L1.61-4.25Q1.76-4.93 1.81-5.13L1.81-5.13Q1.86-5.37 1.95-5.49 2.05-5.62 2-5.81L2-5.81Q2.64-6.4 2.81-6.91 2.98-7.42 3.37-7.81L3.37-7.81 3.56-8.35Q3.91-8.84 3.91-8.84L3.91-8.84Q4.05-9.03 4.13-9.18 4.2-9.33 4.3-9.42L4.3-9.42Q4.39-9.67 4.57-9.84 4.74-10.01 4.83-10.21L4.83-10.21Q4.93-10.74 5-10.72 5.08-10.69 5.13-10.79L5.13-10.79Q5.42-11.13 5.42-11.23 5.42-11.33 5.52-11.43L5.52-11.43Q5.81-11.82 5.83-11.91 5.86-12.01 5.96-12.11L5.96-12.11Q6.2-12.5 6.25-12.57 6.3-12.65 6.4-12.74L6.4-12.74Q6.69-13.09 6.69-13.13 6.69-13.18 6.74-13.23L6.74-13.23Q6.98-13.48 7.08-13.77L7.08-13.77Q7.47-14.16 7.5-14.23 7.52-14.31 7.57-14.4L7.57-14.4Q7.76-14.79 7.86-14.89 7.96-14.99 8.01-15.09L8.01-15.09Q8.2-15.53 8.2-15.63 8.2-15.72 8.3-15.82L8.3-15.82Q8.59-16.26 8.69-16.36L8.69-16.36Q9.03-16.94 9.33-17.33L9.33-17.33Q9.57-17.63 9.67-17.77 9.77-17.92 9.91-18.02L9.91-18.02Q10.11-18.41 10.08-18.43 10.06-18.46 10.11-18.55L10.11-18.55Q10.45-19.09 10.45-19.14 10.45-19.19 10.55-19.29L10.55-19.29Q10.89-19.92 10.89-19.92L10.89-19.92Q10.99-20.07 11.06-20.21 11.13-20.36 11.23-20.46L11.23-20.46Q11.43-20.7 11.47-20.73 11.52-20.75 11.62-20.85L11.62-20.85Q11.91-21.24 11.99-21.39 12.06-21.53 12.16-21.68L12.16-21.68Q12.35-22.02 12.35-22.07 12.35-22.12 12.4-22.22L12.4-22.22Q12.74-22.66 12.74-22.75L12.74-22.75Q13.09-23.19 13.13-23.29 13.18-23.39 13.28-23.44L13.28-23.44Q13.28-23.58 13.38-23.68 13.48-23.78 13.57-23.93L13.57-23.93Q13.82-24.22 13.92-24.41L13.92-24.41 14.21-24.95Q14.45-25.34 14.48-25.44 14.5-25.54 14.55-25.63L14.55-25.63Q14.79-26.22 14.79-26.37L14.79-26.37Q14.94-26.46 14.99-26.61 15.04-26.76 15.19-26.86L15.19-26.86Q15.38-27.15 15.36-27.25 15.33-27.34 15.38-27.39L15.38-27.39Q15.43-27.78 15.38-27.83 15.33-27.88 15.19-27.93L15.19-27.93 14.16-27.93Q13.28-28.08 12.5-27.98L12.5-27.98Q11.91-27.93 11.69-27.98 11.47-28.03 11.18-27.98L11.18-27.98Q10.74-27.98 10.6-27.91 10.45-27.83 10.25-27.83L10.25-27.83Q9.18-27.88 8.74-27.73L8.74-27.73Q8.01-27.59 7.64-27.54 7.28-27.49 6.88-27.54L6.88-27.54Q6.4-27.44 6.37-27.47 6.35-27.49 6.2-27.44L6.2-27.44Q5.71-27.29 5.59-27.34 5.47-27.39 5.37-27.39L5.37-27.39Q4.83-27.34 4.66-27.34 4.49-27.34 4.35-27.25L4.35-27.25Q3.86-27.2 3.56-27.12 3.27-27.05 2.98-27.15L2.98-27.15Q2.49-27.34 2.51-27.37 2.54-27.39 2.49-27.39L2.49-27.39 2.15-27.83Q2.1-28.56 2.1-28.88 2.1-29.2 2.05-29.54L2.05-29.54Q2.05-29.79 2.05-29.98 2.05-30.18 2.1-30.37L2.1-30.37Q2.05-30.52 2.05-30.69 2.05-30.86 2.05-31.01L2.05-31.01Q2.05-31.15 2.08-31.3 2.1-31.45 2.05-31.64L2.05-31.64Q1.86-32.52 1.81-32.67L1.81-32.67Q1.76-32.81 1.76-33.03 1.76-33.25 1.71-33.5L1.71-33.5Q1.66-33.64 1.68-33.81 1.71-33.98 1.66-34.13L1.66-34.13Q1.66-34.28 1.61-34.42 1.56-34.57 1.56-34.67L1.56-34.67Q1.51-35.06 1.54-35.13 1.56-35.21 1.51-35.25L1.51-35.25Q2-35.89 2.1-36.04L2.1-36.04Q2.59-36.23 2.64-36.18 2.69-36.13 2.78-36.18L2.78-36.18Q3.32-36.43 3.3-36.43 3.27-36.43 3.37-36.52L3.37-36.52Q3.96-36.43 4.05-36.52L4.05-36.52Q4.64-36.62 4.69-36.6 4.74-36.57 4.83-36.57L4.83-36.57Q5.03-36.57 5.18-36.6 5.32-36.62 5.42-36.57L5.42-36.57Q5.91-36.52 6.1-36.57 6.3-36.62 6.49-36.57L6.49-36.57Q6.74-36.57 6.93-36.55 7.13-36.52 7.42-36.52L7.42-36.52 7.96-36.57Q8.2-36.57 8.42-36.57 8.64-36.57 8.89-36.52L8.89-36.52Q9.08-36.52 9.2-36.47 9.33-36.43 9.57-36.43L9.57-36.43Q9.96-36.38 10.13-36.47 10.3-36.57 10.55-36.52L10.55-36.52Q11.04-36.47 11.08-36.43L11.08-36.43Q11.52-36.43 11.6-36.38 11.67-36.33 11.77-36.33L11.77-36.33Q12.45-36.43 12.65-36.4 12.84-36.38 13.09-36.33L13.09-36.33Q13.67-36.33 13.79-36.35 13.92-36.38 14.01-36.38L14.01-36.38Q14.16-36.38 14.31-36.33 14.45-36.28 14.6-36.28L14.6-36.28Q14.79-36.23 14.97-36.25 15.14-36.28 15.33-36.28L15.33-36.28 15.97-36.23Q16.46-36.08 16.85-36.08L16.85-36.08Q17.04-36.04 17.29-36.04 17.53-36.04 17.82-36.04L17.82-36.04Q18.36-35.94 18.41-35.96 18.46-35.99 18.51-35.99L18.51-35.99Q18.95-35.99 18.95-36.04 18.95-36.08 19.04-35.99L19.04-35.99Q19.34-35.89 19.63-35.94 19.92-35.99 20.21-35.89L20.21-35.89Q20.8-35.89 21.02-35.94 21.24-35.99 21.48-35.99L21.48-35.99 22.07-35.99Q22.27-35.99 22.36-36.01 22.46-36.04 22.66-36.04L22.66-36.04Q22.9-35.99 23.17-36.04 23.44-36.08 23.68-36.08L23.68-36.08Q23.83-36.08 23.97-36.11 24.12-36.13 24.22-36.13L24.22-36.13Q24.71-36.04 25.2-36.04L25.2-36.04Q25.34-36.04 25.51-36.06 25.68-36.08 25.78-36.04L25.78-36.04Q26.17-35.64 26.27-35.64L26.27-35.64Q26.56-35.3 26.54-35.25 26.51-35.21 26.56-35.16L26.56-35.16Q26.81-34.81 26.86-34.77 26.9-34.72 26.95-34.62L26.95-34.62Q27.1-34.13 27.12-34.11 27.15-34.08 27.15-34.03L27.15-34.03Q27.2-33.59 27.25-33.54 27.29-33.5 27.29-33.4L27.29-33.4Q27.44-32.91 27.34-32.71L27.34-32.71 27.29-32.13Q27.15-31.84 27-31.57 26.86-31.3 26.81-30.91L26.81-30.91Q26.46-30.57 26.27-30.08L26.27-30.08Q26.07-29.69 26-29.57 25.93-29.44 25.88-29.35L25.88-29.35Q25.59-28.91 25.59-28.86 25.59-28.81 25.54-28.71L25.54-28.71Q25.24-28.22 25.2-28.17L25.2-28.17Q24.9-27.78 24.71-27.39L24.71-27.39Q24.37-26.9 24.37-26.88 24.37-26.86 24.32-26.81L24.32-26.81Q23.93-26.32 23.75-26.17 23.58-26.03 23.49-25.83L23.49-25.83 23.24-25.34Q22.95-24.9 22.9-24.85L22.9-24.85Q22.8-24.76 22.66-24.66 22.51-24.56 22.51-24.37L22.51-24.37Q22.17-24.02 22.14-23.95 22.12-23.88 22.07-23.78L22.07-23.78Q21.73-23.34 21.63-23.14L21.63-23.14Q21.58-22.95 21.39-22.56L21.39-22.56Q21.14-22.02 21.14-22.02L21.14-22.02Q20.9-21.58 20.8-21.46 20.7-21.34 20.61-21.19L20.61-21.19Q20.31-20.8 20.31-20.73 20.31-20.65 20.26-20.61L20.26-20.61Q20.02-20.31 20-20.17 19.97-20.02 19.87-19.92L19.87-19.92Q19.53-19.34 19.48-19.24L19.48-19.24Q19.14-18.85 19.02-18.6 18.9-18.36 18.75-18.16L18.75-18.16Q18.55-17.82 18.53-17.8 18.51-17.77 18.46-17.68L18.46-17.68Q18.12-17.19 18.12-17.14 18.12-17.09 18.07-17.04L18.07-17.04Q17.68-16.6 17.58-16.38 17.48-16.16 17.38-15.97L17.38-15.97Q17.24-15.67 17.16-15.58 17.09-15.48 17.04-15.38L17.04-15.38 16.65-14.79Q16.31-14.4 16.31-14.38 16.31-14.36 16.26-14.36L16.26-14.36 15.82-13.72Q15.53-13.23 15.38-12.94L15.38-12.94Q15.14-12.65 15.11-12.52 15.09-12.4 14.99-12.3L14.99-12.3Q14.75-11.82 14.55-11.52L14.55-11.52Q14.21-11.04 14.23-11.01 14.26-10.99 14.21-10.94L14.21-10.94Q14.11-10.74 13.92-10.45L13.92-10.45Q13.67-9.91 13.67-9.81L13.67-9.81Q13.33-9.13 13.21-8.91 13.09-8.69 12.94-8.45L12.94-8.45Q12.84-8.25 12.74-8.08 12.65-7.91 12.55-7.71ZM40.23-37.3L40.23-37.3Q40.33-37.45 40.5-37.35 40.67-37.26 40.77-37.35L40.77-37.35Q41.11-37.11 41.35-37.06L41.35-37.06Q41.5-36.87 41.84-36.77L41.84-36.77Q42.23-36.43 42.28-36.38L42.28-36.38Q42.77-35.84 43.04-35.69 43.31-35.55 43.55-35.4L43.55-35.4Q44.09-35.21 44.14-35.11 44.19-35.01 44.33-34.91L44.33-34.91 44.82-34.47Q45.11-34.28 45.26-34.13L45.26-34.13Q45.46-34.08 45.68-34.01 45.9-33.94 45.99-33.84L45.99-33.84Q46.14-33.3 46.12-33.15 46.09-33.01 46.09-32.86L46.09-32.86Q45.94-32.67 45.92-32.54 45.9-32.42 45.8-32.32L45.8-32.32Q45.55-31.93 45.46-31.84L45.46-31.84Q45.11-31.54 44.99-31.47 44.87-31.4 44.77-31.3L44.77-31.3Q44.33-30.86 44.26-30.83 44.19-30.81 44.14-30.76L44.14-30.76Q43.89-30.57 43.8-30.32L43.8-30.32Q43.6-30.32 43.53-30.2 43.45-30.08 43.31-30.03L43.31-30.03Q42.92-29.74 42.89-29.71 42.87-29.69 42.77-29.59L42.77-29.59Q42.48-29.35 42.36-29.22 42.23-29.1 42.14-29L42.14-29Q41.75-28.56 41.7-28.49 41.65-28.42 41.55-28.32L41.55-28.32Q41.26-27.88 41.21-27.86 41.16-27.83 41.11-27.73L41.11-27.73Q40.82-27.34 40.67-27.2 40.52-27.05 40.43-26.86L40.43-26.86Q40.18-26.42 40.13-26.34 40.09-26.27 40.13-26.17L40.13-26.17Q39.99-25.83 39.87-25.73 39.74-25.63 39.69-25.49L39.69-25.49Q39.74-25.2 39.65-24.95 39.55-24.71 39.55-24.46L39.55-24.46Q39.55-23.93 39.65-23.83L39.65-23.83Q39.74-23.24 39.89-22.97 40.04-22.71 40.13-22.41L40.13-22.41Q40.23-22.22 40.31-22 40.38-21.78 40.48-21.58L40.48-21.58Q40.67-21.09 40.77-20.97 40.87-20.85 40.96-20.7L40.96-20.7Q41.31-20.31 41.38-20.29 41.45-20.26 41.5-20.17L41.5-20.17Q41.6-19.87 41.67-19.8 41.75-19.73 41.79-19.63L41.79-19.63Q41.99-19.34 42.11-19.12 42.23-18.9 42.38-18.7L42.38-18.7Q42.58-18.31 42.6-18.24 42.62-18.16 42.72-18.07L42.72-18.07Q42.97-17.63 43.02-17.58L43.02-17.58Q43.36-17.04 43.38-17.07 43.41-17.09 43.41-16.99L43.41-16.99Q43.55-16.41 43.63-16.11 43.7-15.82 43.8-15.53L43.8-15.53Q43.89-15.28 43.97-15.16 44.04-15.04 44.14-14.94L44.14-14.94 44.33-14.31Q44.58-13.82 44.63-13.77 44.68-13.72 44.68-13.67L44.68-13.67Q44.77-13.23 44.77-13.04 44.77-12.84 44.87-12.65L44.87-12.65Q44.92-12.45 44.97-12.28 45.02-12.11 45.02-11.87L45.02-11.87Q45.02-11.43 45.07-11.33 45.11-11.23 45.11-11.13L45.11-11.13Q45.11-10.99 45.07-10.72 45.02-10.45 45.02-10.25L45.02-10.25Q45.07-9.96 45.04-9.89 45.02-9.81 45.02-9.72L45.02-9.72Q44.92-9.13 44.85-8.98 44.77-8.84 44.77-8.69L44.77-8.69Q44.48-8.11 44.46-7.98 44.43-7.86 44.33-7.76L44.33-7.76Q44.19-7.42 44.16-7.32 44.14-7.23 44.04-7.13L44.04-7.13Q43.94-6.88 43.65-6.59L43.65-6.59Q43.41-6.1 43.16-6.01L43.16-6.01Q43.16-5.81 43.06-5.69 42.97-5.57 42.87-5.42L42.87-5.42Q42.67-5.22 42.67-5.13 42.67-5.03 42.62-4.93L42.62-4.93Q42.19-4.49 42.11-4.37 42.04-4.25 41.84-4.15L41.84-4.15Q41.6-3.91 41.35-3.59 41.11-3.27 40.96-2.88L40.96-2.88Q40.62-2.69 40.52-2.49L40.52-2.49Q40.28-2.1 40.23-2.08 40.18-2.05 40.13-1.95L40.13-1.95Q39.99-1.71 39.91-1.59 39.84-1.46 39.79-1.37L39.79-1.37Q39.3-1.07 39.3-1.03L39.3-1.03Q39.06-0.78 38.99-0.73 38.91-0.68 38.82-0.63L38.82-0.63Q38.47-0.34 38.47-0.29 38.47-0.24 38.43-0.2L38.43-0.2Q38.13 0.29 38.01 0.42 37.89 0.54 37.74 0.68L37.74 0.68Q37.45 0.83 37.4 1.12L37.4 1.12Q36.96 1.46 36.89 1.51 36.81 1.56 36.57 1.66L36.57 1.66Q36.03 1.76 35.96 1.66 35.89 1.56 35.64 1.61L35.64 1.61Q35.2 1.27 35.18 1.29 35.15 1.32 35.1 1.27L35.1 1.27Q35.01 1.17 34.93 1.03 34.86 0.88 34.76 0.78L34.76 0.78Q34.32 0.39 34.3 0.34 34.27 0.29 34.18 0.34L34.18 0.34Q33.64-0.1 33.35-0.49L33.35-0.49Q33.01-0.73 32.91-0.76 32.81-0.78 32.66-0.83L32.66-0.83Q32.37-1.42 32.27-1.61L32.27-1.61Q31.78-2.05 31.76-2.12 31.74-2.2 31.64-2.25L31.64-2.25 30.95-2.93Q30.61-3.56 30.42-3.76L30.42-3.76Q30.42-4.05 30.27-4.17 30.12-4.3 30.08-4.54L30.08-4.54Q30.08-4.69 30.15-4.86 30.22-5.03 30.32-5.18L30.32-5.18Q30.52-5.62 30.69-5.79 30.86-5.96 31-6.05L31-6.05Q31.35-6.3 31.49-6.54L31.49-6.54Q32.08-7.18 32.27-7.32L32.27-7.32Q32.37-7.47 32.44-7.64 32.52-7.81 32.71-7.91L32.71-7.91Q33.15-8.4 33.4-8.64L33.4-8.64Q33.64-8.89 33.88-9.16 34.13-9.42 34.37-9.77L34.37-9.77Q34.76-10.25 34.84-10.33 34.91-10.4 34.96-10.5L34.96-10.5Q35.35-11.04 35.37-11.16 35.4-11.28 35.45-11.38L35.45-11.38Q35.84-11.96 35.96-12.3 36.08-12.65 35.94-13.09L35.94-13.09 35.89-13.62Q35.64-14.06 35.59-14.23 35.54-14.4 35.45-14.55L35.45-14.55Q35.1-14.99 34.96-15.04L34.96-15.04Q34.91-15.28 34.76-15.41 34.62-15.53 34.52-15.77L34.52-15.77Q34.37-15.92 34.35-16.06 34.32-16.21 34.23-16.31L34.23-16.31Q33.93-16.7 33.84-16.89 33.74-17.09 33.64-17.29L33.64-17.29Q33.44-17.63 33.4-17.65 33.35-17.68 33.3-17.77L33.3-17.77 32.86-18.26Q32.76-18.51 32.64-18.73 32.52-18.95 32.37-19.19L32.37-19.19Q32.27-19.38 32.15-19.58 32.03-19.78 31.93-20.02L31.93-20.02Q31.74-20.36 31.74-20.41 31.74-20.46 31.69-20.51L31.69-20.51Q31.35-21 31.35-21.04L31.35-21.04 31-21.63Q30.81-22.07 30.78-22.09 30.76-22.12 30.76-22.17L30.76-22.17Q30.56-22.41 30.52-22.49 30.47-22.56 30.42-22.66L30.42-22.66Q30.27-23.14 30.27-23.24L30.27-23.24Q30.12-23.83 30.05-23.97 29.98-24.12 29.98-24.32L29.98-24.32Q30.08-24.8 30.17-25.2L30.17-25.2Q30.27-25.63 30.32-25.71 30.37-25.78 30.42-25.88L30.42-25.88Q30.52-26.42 30.49-26.78 30.47-27.15 30.56-27.39L30.56-27.39Q30.81-27.83 30.95-28.22L30.95-28.22Q31.2-28.76 31.25-28.93 31.3-29.1 31.35-29.2L31.35-29.2Q31.44-29.54 31.69-29.83L31.69-29.83Q31.98-30.22 32.03-30.3 32.08-30.37 32.13-30.47L32.13-30.47Q32.61-30.91 32.76-31.15L32.76-31.15Q33.01-31.49 33.18-31.64 33.35-31.79 33.49-32.03L33.49-32.03Q33.59-32.23 33.66-32.32 33.74-32.42 33.84-32.52L33.84-32.52Q34.18-32.76 34.23-32.89 34.27-33.01 34.37-33.11L34.37-33.11Q34.52-33.25 34.69-33.37 34.86-33.5 34.96-33.64L34.96-33.64Q35.06-33.74 35.13-33.84 35.2-33.94 35.3-34.08L35.3-34.08Q35.94-34.42 36.08-34.57 36.23-34.72 36.42-34.81L36.42-34.81Q36.91-35.16 37.2-35.45L37.2-35.45Q37.55-35.74 37.57-35.74 37.6-35.74 37.64-35.84L37.64-35.84Q37.84-35.99 38.03-36.16 38.23-36.33 38.47-36.52L38.47-36.52Q38.77-36.96 38.82-36.96 38.86-36.96 38.86-37.01L38.86-37.01Q39.4-37.45 39.77-37.5 40.13-37.55 40.23-37.3ZM58.15-36.13L58.25-35.99Q58.1-35.45 58.1-35.35L58.1-35.35 58.1-34.52Q57.95-33.69 57.98-33.23 58-32.76 57.95-32.23L57.95-32.23Q57.95-32.03 57.91-31.81 57.86-31.59 57.86-31.4L57.86-31.4Q57.86-31.15 57.86-30.93 57.86-30.71 57.76-30.47L57.76-30.47Q57.81-30.08 57.83-30.05 57.86-30.03 57.86-29.93L57.86-29.93Q57.76-29.49 57.81-29.1 57.86-28.71 57.81-28.32L57.81-28.32 57.81-27.59Q57.76-27.34 57.78-27.17 57.81-27 57.76-26.81L57.76-26.81Q57.71-26.61 57.66-26.46 57.61-26.32 57.61-26.17L57.61-26.17Q57.56-25.34 57.61-24.95L57.61-24.95Q57.76-24.9 57.93-25.02 58.1-25.15 58.25-25.24L58.25-25.24Q58.74-25.49 58.76-25.46 58.78-25.44 58.83-25.49L58.83-25.49Q59.27-25.73 59.37-25.83L59.37-25.83Q59.91-26.12 59.96-26.17L59.96-26.17Q60.44-26.37 60.47-26.44 60.49-26.51 60.59-26.51L60.59-26.51Q61.03-26.61 61.27-26.95L61.27-26.95Q61.52-26.86 61.81-27.15L61.81-27.15Q61.96-27.2 62.15-27.2 62.35-27.2 62.5-27.29L62.5-27.29Q62.69-27.49 62.89-27.51 63.08-27.54 63.18-27.69L63.18-27.69Q63.57-27.73 63.94-27.83 64.3-27.93 64.69-27.98L64.69-27.98Q65.47-27.93 65.47-27.93L65.47-27.93Q65.91-27.78 66.16-27.83L66.16-27.83Q66.5-27.54 66.52-27.49 66.55-27.44 66.65-27.39L66.65-27.39Q67.13-27.29 67.13-27.27 67.13-27.25 67.23-27.2L67.23-27.2Q67.72-26.86 67.87-26.73 68.01-26.61 68.26-26.51L68.26-26.51Q68.31-26.32 68.43-26.17 68.55-26.03 68.7-25.83L68.7-25.83Q69.14-25.39 69.14-25.39L69.14-25.39Q69.33-25.2 69.38-25.07 69.43-24.95 69.53-24.95L69.53-24.95Q69.87-24.56 69.94-24.51 70.01-24.46 70.11-24.37L70.11-24.37Q70.36-23.83 70.5-23.73L70.5-23.73Q70.94-23.34 71.02-23.22 71.09-23.1 71.24-23L71.24-23Q71.33-22.85 71.45-22.75 71.58-22.66 71.67-22.46L71.67-22.46Q71.92-22.17 71.97-21.92L71.97-21.92Q72.02-21.68 72.07-21.48 72.11-21.29 72.21-21.04L72.21-21.04Q72.36-20.51 72.29-20.31 72.21-20.12 72.26-19.87L72.26-19.87Q72.31-19.29 72.29-19.24 72.26-19.19 72.26-19.09L72.26-19.09Q72.26-18.9 72.31-18.7 72.36-18.51 72.36-18.26L72.36-18.26Q72.36-17.77 72.31-17.38 72.26-16.99 72.31-16.5L72.31-16.5Q72.31-15.92 72.36-15.72 72.41-15.53 72.36-15.28L72.36-15.28Q72.41-14.75 72.36-14.62 72.31-14.5 72.26-14.36L72.26-14.36 72.31-13.67Q72.46-13.13 72.41-13.09 72.36-13.04 72.46-12.99L72.46-12.99Q72.41-12.4 72.46-12.3L72.46-12.3Q72.41-11.77 72.48-11.79 72.55-11.82 72.5-11.72L72.5-11.72Q72.41-11.57 72.41-11.38 72.41-11.18 72.41-10.94L72.41-10.94Q72.41-10.69 72.36-10.6 72.31-10.5 72.31-10.4L72.31-10.4Q72.36-9.86 72.33-9.62 72.31-9.38 72.31-9.13L72.31-9.13Q72.31-8.94 72.36-8.79 72.41-8.64 72.36-8.35L72.36-8.35Q72.36-8.3 72.33-8.11 72.31-7.91 72.31-7.81L72.31-7.81Q72.31-7.57 72.29-7.37 72.26-7.18 72.26-6.93L72.26-6.93Q72.36-6.4 72.33-6.35 72.31-6.3 72.31-6.25L72.31-6.25Q72.36-5.62 72.31-4.93L72.31-4.93Q72.26-4.49 72.31-4.42 72.36-4.35 72.36-4.25L72.36-4.25Q72.36-3.81 72.41-3.61L72.41-3.61Q72.46-2.88 72.41-2.78L72.41-2.78Q72.5-2.59 72.48-2.42 72.46-2.25 72.5-2L72.5-2Q72.65-1.56 72.72-1.42 72.8-1.27 72.7-1.12L72.7-1.12Q72.5-0.54 72.36-0.42 72.21-0.29 72.21-0.05L72.21-0.05Q71.97 0 71.82 0.05 71.67 0.1 71.48 0.2L71.48 0.2Q70.94 0.24 70.6 0.2 70.26 0.15 69.87 0.24L69.87 0.24Q69.38 0.34 68.84 0.34L68.84 0.34Q68.65 0.34 68.45 0.32 68.26 0.29 68.06 0.34L68.06 0.34Q67.82 0.34 67.45 0.32 67.08 0.29 66.79 0.34L66.79 0.34Q66.6 0.29 66.47 0.29 66.35 0.29 66.21 0.24L66.21 0.24Q65.72 0.2 65.67 0.15 65.62 0.1 65.52 0.1L65.52 0.1Q65.08-0.05 64.94-0.1L64.94-0.1Q64.59-0.44 64.59-0.61 64.59-0.78 64.55-0.98L64.55-0.98Q64.55-1.17 64.5-1.32 64.45-1.46 64.45-1.66L64.45-1.66Q64.59-1.81 64.55-2.12 64.5-2.44 64.5-2.78L64.5-2.78 64.59-3.42Q64.74-3.91 64.74-4.15L64.74-4.15Q64.99-4.74 64.96-4.79 64.94-4.83 64.94-4.93L64.94-4.93Q65.03-5.37 65.01-5.42 64.99-5.47 65.08-5.52L65.08-5.52Q65.08-6.1 65.06-6.3 65.03-6.49 65.08-6.74L65.08-6.74Q65.08-6.98 65.11-7.23 65.13-7.47 64.99-7.62L64.99-7.62Q65.08-7.71 65.08-7.86 65.08-8.01 65.08-8.15L65.08-8.15Q65.08-8.74 65.18-8.84L65.18-8.84Q65.03-9.57 65.18-9.86L65.18-9.86Q65.08-10.16 65.18-10.4L65.18-10.4Q64.99-11.18 64.99-11.33L64.99-11.33 65.03-11.87Q65.03-12.45 65.01-12.48 64.99-12.5 64.99-12.6L64.99-12.6Q65.03-13.09 65.03-13.26 65.03-13.43 65.03-13.62L65.03-13.62Q65.03-13.72 64.94-13.87 64.84-14.01 64.94-14.21L64.94-14.21 64.94-14.75Q64.84-15.09 64.91-15.16 64.99-15.23 64.94-15.33L64.94-15.33Q64.84-16.06 64.94-16.21L64.94-16.21Q64.94-16.31 64.89-16.48 64.84-16.65 64.94-16.75L64.94-16.75Q64.94-16.89 65.03-17.04 65.13-17.19 65.08-17.38L65.08-17.38Q65.18-17.72 65.16-18.04 65.13-18.36 65.08-18.6L65.08-18.6Q64.99-19.34 64.91-20.07 64.84-20.8 64.3-21.09L64.3-21.09Q64.2-21 64.03-20.95 63.86-20.9 63.76-20.8L63.76-20.8Q63.52-20.75 63.35-20.68 63.18-20.61 63.08-20.41L63.08-20.41Q62.79-20.41 62.64-20.24 62.5-20.07 62.35-19.97L62.35-19.97Q61.86-19.53 61.66-19.48L61.66-19.48Q61.52-19.34 61.13-19.04L61.13-19.04Q60.83-18.75 60.64-18.63 60.44-18.51 60.3-18.41L60.3-18.41Q60.1-18.26 59.81-18.07L59.81-18.07Q59.71-17.97 59.57-17.82 59.42-17.68 59.32-17.63L59.32-17.63Q58.98-17.53 58.39-17.77L58.39-17.77Q58.25-17.82 58.1-17.82 57.95-17.82 57.86-17.87L57.86-17.87Q57.42-18.26 57.32-18.26L57.32-18.26Q57.27-18.02 57.27-17.77 57.27-17.53 57.27-17.33L57.27-17.33Q57.27-17.14 57.29-16.97 57.32-16.8 57.32-16.6L57.32-16.6Q57.32-16.46 57.29-16.36 57.27-16.26 57.27-16.06L57.27-16.06Q57.27-15.72 57.29-15.58 57.32-15.43 57.32-15.28L57.32-15.28Q57.32-14.99 57.32-14.67 57.32-14.36 57.27-14.01L57.27-14.01 57.27-13.43Q57.32-13.33 57.29-13.16 57.27-12.99 57.37-12.84L57.37-12.84Q57.32-12.55 57.29-12.26 57.27-11.96 57.27-11.67L57.27-11.67Q57.27-11.43 57.32-11.28 57.37-11.13 57.37-10.99L57.37-10.99Q57.27-10.4 57.27-10.38 57.27-10.35 57.22-10.25L57.22-10.25Q57.32-9.57 57.29-9.25 57.27-8.94 57.27-8.64L57.27-8.64Q57.37-8.2 57.34-8.18 57.32-8.15 57.32-8.06L57.32-8.06 57.42-7.08Q57.51-6.59 57.51-6.54L57.51-6.54Q57.47-6.01 57.56-5.62L57.56-5.62Q57.61-5.27 57.61-4.98 57.61-4.69 57.66-4.39L57.66-4.39Q57.71-3.96 57.81-3.66L57.81-3.66Q57.91-3.56 57.93-3.27 57.95-2.98 58-2.78L58-2.78Q58-2.64 58-2.47 58-2.29 58.05-2.15L58.05-2.15 58.05-1.32Q58.1-1.03 58.12-0.88 58.15-0.73 58.15-0.59L58.15-0.59Q58.15-0.44 58.1-0.27 58.05-0.1 58.1 0.15L58.1 0.15Q57.76 0.39 57.73 0.44 57.71 0.49 57.61 0.54L57.61 0.54Q57.17 0.63 57.08 0.61 56.98 0.59 56.83 0.54L56.83 0.54Q56.25 0.54 56.15 0.56 56.05 0.59 55.95 0.59L55.95 0.59Q55.71 0.59 55.46 0.56 55.22 0.54 54.98 0.68L54.98 0.68 54.15 0.68Q53.56 0.68 53.54 0.71 53.51 0.73 53.46 0.73L53.46 0.73Q53.12 0.68 52.88 0.73 52.63 0.78 52.49 0.88L52.49 0.88Q52.34 0.78 52.19 0.81 52.05 0.83 51.95 0.83L51.95 0.83Q51.36 0.73 51.29 0.76 51.22 0.78 51.12 0.73L51.12 0.73Q50.48 0.63 50.31 0.51 50.14 0.39 49.9 0.39L49.9 0.39Q49.51-0.29 49.58-1.03 49.65-1.76 49.56-2.25L49.56-2.25Q49.7-2.73 49.75-3 49.8-3.27 49.7-3.56L49.7-3.56Q49.8-3.71 49.8-3.93 49.8-4.15 49.7-4.35L49.7-4.35Q49.85-4.93 49.85-4.93L49.85-4.93Q49.85-5.32 49.82-5.47 49.8-5.62 49.8-5.71L49.8-5.71Q49.8-5.96 49.85-6.23 49.9-6.49 49.9-6.74L49.9-6.74Q49.9-7.28 49.87-7.4 49.85-7.52 49.9-7.62L49.9-7.62Q49.9-8.3 49.92-8.62 49.95-8.94 49.9-9.18L49.9-9.18Q49.9-9.42 49.92-9.57 49.95-9.72 49.85-9.91L49.85-9.91Q49.9-10.16 49.92-10.4 49.95-10.64 49.9-10.89L49.9-10.89Q49.85-11.28 49.87-11.35 49.9-11.43 49.9-11.52L49.9-11.52Q49.85-11.96 49.85-12.11L49.85-12.11Q49.8-12.35 49.82-12.57 49.85-12.79 49.8-13.04L49.8-13.04Q49.65-13.57 49.68-13.65 49.7-13.72 49.7-13.82L49.7-13.82Q49.6-14.06 49.65-14.31 49.7-14.55 49.6-14.65L49.6-14.65Q49.7-14.89 49.65-15.14 49.6-15.38 49.65-15.67L49.65-15.67Q49.65-15.82 49.7-15.99 49.75-16.16 49.7-16.41L49.7-16.41Q49.7-16.85 49.68-16.99 49.65-17.14 49.65-17.29L49.65-17.29Q49.6-17.58 49.63-17.92 49.65-18.26 49.7-18.55L49.7-18.55Q49.65-19.09 49.7-19.14L49.7-19.14Q49.6-19.68 49.7-19.97L49.7-19.97Q49.7-20.12 49.65-20.24 49.6-20.36 49.6-20.51L49.6-20.51Q49.56-21.09 49.7-21.92L49.7-21.92Q49.6-22.07 49.6-22.66L49.6-22.66Q49.6-22.85 49.63-23.02 49.65-23.19 49.65-23.44L49.65-23.44Q49.6-23.83 49.63-23.9 49.65-23.97 49.65-24.07L49.65-24.07Q49.65-24.37 49.6-24.66 49.56-24.95 49.6-25.24L49.6-25.24Q49.75-25.63 49.73-25.71 49.7-25.78 49.7-25.88L49.7-25.88Q49.8-26.17 49.78-26.39 49.75-26.61 49.7-26.71L49.7-26.71Q49.7-27.1 49.7-27.29L49.7-27.29Q49.7-27.44 49.68-27.61 49.65-27.78 49.7-27.88L49.7-27.88Q49.7-28.52 49.63-28.69 49.56-28.86 49.56-29.1L49.56-29.1Q49.56-29.2 49.58-29.35 49.6-29.49 49.6-29.64L49.6-29.64Q49.6-29.88 49.58-30.15 49.56-30.42 49.51-30.66L49.51-30.66Q49.51-30.91 49.53-31.15 49.56-31.4 49.56-31.64L49.56-31.64Q49.51-32.08 49.53-32.13 49.56-32.18 49.56-32.23L49.56-32.23 49.46-32.91Q49.36-33.3 49.41-33.42 49.46-33.54 49.46-33.64L49.46-33.64Q49.46-33.79 49.36-33.98 49.26-34.18 49.26-34.42L49.26-34.42Q49.26-34.67 49.29-34.86 49.31-35.06 49.21-35.25L49.21-35.25Q49.36-35.64 49.26-35.69 49.16-35.74 49.16-35.79L49.16-35.79Q49.16-36.28 49.16-36.4 49.16-36.52 49.21-36.57L49.21-36.57Q50.04-37.06 50.19-37.26L50.19-37.26Q50.34-37.26 50.48-37.21 50.63-37.16 50.73-37.16L50.73-37.16Q51.12-37.21 51.14-37.18 51.17-37.16 51.26-37.16L51.26-37.16Q51.7-37.11 51.8-37.16 51.9-37.21 52-37.21L52-37.21Q52.29-37.16 52.46-37.18 52.63-37.21 52.83-37.21L52.83-37.21Q53.27-37.11 53.39-37.13 53.51-37.16 53.61-37.16L53.61-37.16Q54.19-37.06 54.29-37.11 54.39-37.16 54.54-37.16L54.54-37.16Q55.07-37.16 55.22-37.21 55.37-37.26 55.51-37.16L55.51-37.16Q55.66-37.26 55.88-37.21 56.1-37.16 56.2-37.26L56.2-37.26Q56.34-37.16 56.51-37.13 56.68-37.11 56.83-37.06L56.83-37.06Q57.22-36.96 57.47-36.96L57.47-36.96Q57.86-36.47 57.95-36.35 58.05-36.23 58.15-36.13L58.15-36.13ZM89.4-28.96L89.64-29.05Q89.89-29.05 89.98-29.03 90.08-29 90.28-29.1L90.28-29.1Q90.42-28.96 90.86-28.96L90.86-28.96Q91.3-29 91.5-28.91L91.5-28.91Q91.74-28.86 91.89-28.86 92.03-28.86 92.18-28.66L92.18-28.66Q92.38-28.71 92.52-28.61 92.67-28.52 92.77-28.52L92.77-28.52Q93.74-28.47 94.08-28.17L94.08-28.17Q94.72-28.17 94.82-28.05 94.91-27.93 95.06-28.03L95.06-28.03Q95.5-27.69 95.65-27.66 95.79-27.64 95.94-27.54L95.94-27.54Q96.04-27.49 96.21-27.42 96.38-27.34 96.57-27.29L96.57-27.29Q97.01-26.95 97.01-26.93 97.01-26.9 97.06-26.86L97.06-26.86Q97.7-26.61 97.8-26.37L97.8-26.37Q98.23-26.07 98.23-26.03L98.23-26.03Q98.82-25.73 98.82-25.59L98.82-25.59Q99.26-25.29 99.46-25.1L99.46-25.1 99.85-24.66Q100.14-24.22 100.14-24.17 100.14-24.12 100.19-24.07L100.19-24.07Q100.43-23.73 100.48-23.66 100.53-23.58 100.63-23.49L100.63-23.49Q101.02-23.05 101.12-22.85L101.12-22.85Q101.41-22.41 101.41-22.31 101.41-22.22 101.51-22.22L101.51-22.22Q101.56-21.83 101.7-21.68L101.7-21.68Q101.9-21.29 101.92-21.26 101.95-21.24 101.99-21.14L101.99-21.14 102.29-20.65Q102.48-20.17 102.58-20.04 102.68-19.92 102.73-19.82L102.73-19.82Q102.78-19.68 102.8-19.56 102.82-19.43 102.87-19.29L102.87-19.29Q103.02-18.46 103.17-18.16L103.17-18.16Q103.31-17.72 103.34-17.55 103.36-17.38 103.41-17.24L103.41-17.24Q103.51-16.75 103.51-16.55 103.51-16.36 103.61-16.21L103.61-16.21Q103.51-16.02 103.61-15.84 103.7-15.67 103.75-15.43L103.75-15.43Q103.8-15.23 103.78-15.06 103.75-14.89 103.85-14.75L103.85-14.75Q103.75-14.6 103.78-14.43 103.8-14.26 103.8-14.06L103.8-14.06Q103.7-13.53 103.73-13.43 103.75-13.33 103.75-13.18L103.75-13.18Q103.75-12.65 103.7-12.55 103.65-12.45 103.61-12.35L103.61-12.35Q103.61-12.11 103.61-11.87 103.61-11.62 103.51-11.38L103.51-11.38Q103.46-11.13 103.48-11.01 103.51-10.89 103.41-10.69L103.41-10.69 103.22-9.91Q103.17-9.38 103.19-9.33 103.22-9.28 103.22-9.23L103.22-9.23Q103.12-8.94 103.12-8.86 103.12-8.79 103.07-8.69L103.07-8.69Q102.87-8.11 102.85-8.11 102.82-8.11 102.82-8.06L102.82-8.06Q102.68-7.52 102.58-7.42L102.58-7.42Q102.29-6.93 102.14-6.93L102.14-6.93Q101.95-6.25 101.75-6.05 101.56-5.86 101.56-5.47L101.56-5.47 101.21-5.03Q100.87-4.49 100.8-4.39 100.72-4.3 100.63-4.2L100.63-4.2Q100.29-3.81 100.29-3.78 100.29-3.76 100.24-3.71L100.24-3.71Q99.99-3.47 99.87-3.3 99.75-3.13 99.65-2.93L99.65-2.93Q99.41-2.83 99.21-2.64 99.02-2.44 98.77-2.25L98.77-2.25Q98.67-2.15 98.5-2.05 98.33-1.95 98.28-1.76L98.28-1.76Q97.7-1.42 97.4-1.32L97.4-1.32Q96.87-1.07 96.84-1.03 96.82-0.98 96.77-0.93L96.77-0.93Q96.23-0.78 96.16-0.76 96.09-0.73 95.99-0.68L95.99-0.68 95.5-0.44 94.96-0.24Q94.57-0.05 94.47-0.02 94.38 0 94.23 0L94.23 0Q93.89 0.24 93.84 0.22 93.79 0.2 93.69 0.2L93.69 0.2Q93.55 0.24 93.4 0.32 93.25 0.39 93.06 0.34L93.06 0.34Q92.72 0.59 92.52 0.56 92.33 0.54 92.13 0.59L92.13 0.59Q91.4 0.78 91.06 0.71 90.72 0.63 90.32 0.73L90.32 0.73Q90.08 0.78 89.91 0.83 89.74 0.88 89.54 0.93L89.54 0.93Q89.06 0.93 89.06 0.9 89.06 0.88 89.01 0.88L89.01 0.88Q88.76 0.98 88.52 0.88 88.27 0.78 87.98 0.73L87.98 0.73Q87.39 0.59 87.27 0.59 87.15 0.59 87.05 0.54L87.05 0.54Q86.71 0.34 86.69 0.37 86.66 0.39 86.56 0.29L86.56 0.29Q86.42 0.39 86.22 0.32 86.03 0.24 85.78 0.29L85.78 0.29Q85.3 0.15 85.17 0.05 85.05-0.05 84.95-0.15L84.95-0.15Q84.37-0.15 84.12-0.54L84.12-0.54Q83.83-0.54 83.73-0.71 83.64-0.88 83.34-0.88L83.34-0.88Q82.95-1.32 82.9-1.32L82.9-1.32Q82.46-1.56 82.37-1.66L82.37-1.66Q82.02-1.9 81.93-1.95 81.83-2 81.68-2.1L81.68-2.1Q81.19-2.59 81.1-2.59L81.1-2.59Q80.56-3.03 80.27-3.17L80.27-3.17Q80.02-3.47 79.75-3.78 79.48-4.1 79.09-4.35L79.09-4.35Q79.05-4.49 78.97-4.61 78.9-4.74 78.8-4.83L78.8-4.83Q78.56-5.37 78.51-5.42L78.51-5.42Q78.17-5.76 78.09-5.86 78.02-5.96 77.97-6.05L77.97-6.05Q77.73-6.54 77.6-6.84 77.48-7.13 77.29-7.42L77.29-7.42Q77.04-8.01 76.75-8.4L76.75-8.4Q76.7-8.5 76.65-8.69 76.6-8.89 76.65-9.08L76.65-9.08Q76.46-9.81 76.38-10.06 76.31-10.3 76.21-10.6L76.21-10.6Q76.12-11.04 76.14-11.13 76.16-11.23 76.12-11.38L76.12-11.38Q76.02-11.91 76.02-11.96L76.02-11.96Q76.02-12.06 76.02-12.3 76.02-12.55 75.97-12.65L75.97-12.65Q75.92-12.94 75.97-13.43 76.02-13.92 75.92-14.45L75.92-14.45Q75.92-14.6 75.85-14.75 75.77-14.89 75.77-15.09L75.77-15.09Q75.87-15.67 75.85-15.77 75.82-15.87 75.87-15.97L75.87-15.97Q75.97-16.36 75.94-16.5 75.92-16.65 75.97-16.75L75.97-16.75Q76.07-17.29 76.07-17.29L76.07-17.29Q76.16-17.77 76.21-17.87 76.26-17.97 76.26-18.07L76.26-18.07Q76.41-18.6 76.46-18.65L76.46-18.65Q76.7-19.09 76.75-19.12 76.8-19.14 76.8-19.19L76.8-19.19Q76.9-19.78 76.99-19.87L76.99-19.87Q77.14-20.17 77.19-20.24 77.24-20.31 77.24-20.51L77.24-20.51Q77.58-21.04 77.73-21.26 77.87-21.48 77.92-21.83L77.92-21.83Q78.12-22.22 78.26-22.39 78.41-22.56 78.56-22.75L78.56-22.75Q78.7-23 78.85-23.22 79-23.44 79.09-23.68L79.09-23.68Q79.39-23.88 79.58-24.41L79.58-24.41Q79.78-24.51 79.85-24.58 79.92-24.66 80.02-24.76L80.02-24.76Q80.46-25.15 80.51-25.2L80.51-25.2Q80.9-25.59 80.97-25.61 81.05-25.63 81.1-25.68L81.1-25.68Q81.58-26.27 81.97-26.46L81.97-26.46Q82.37-26.76 82.49-26.78 82.61-26.81 82.76-26.9L82.76-26.9Q83.05-27.05 83.15-27.08 83.24-27.1 83.34-27.2L83.34-27.2Q83.93-27.49 84.22-27.59 84.51-27.69 84.76-27.83L84.76-27.83Q85.3-27.98 85.32-27.95 85.34-27.93 85.39-27.98L85.39-27.98 85.88-28.27Q86.32-28.47 86.49-28.44 86.66-28.42 86.81-28.47L86.81-28.47Q87.35-28.71 87.54-28.71L87.54-28.71Q87.88-28.86 88.08-28.86 88.27-28.86 88.42-28.91L88.42-28.91Q88.66-28.91 88.88-28.96 89.1-29 89.4-28.96L89.4-28.96ZM87.93-5.91L87.93-5.91Q88.27-5.47 88.32-5.47L88.32-5.47Q88.81-5.03 89.01-4.83L89.01-4.83Q89.54-4.54 89.64-4.44L89.64-4.44Q90.23-4.44 90.3-4.52 90.37-4.59 90.47-4.69L90.47-4.69Q90.86-4.88 90.96-4.93L90.96-4.93Q91.4-5.52 91.59-5.57L91.59-5.57Q91.84-5.96 91.86-5.96 91.89-5.96 91.94-6.01L91.94-6.01Q92.28-6.3 92.38-6.4L92.38-6.4Q92.77-6.84 92.81-6.93L92.81-6.93Q93.01-6.93 93.08-7.03 93.16-7.13 93.3-7.23L93.3-7.23Q93.4-7.62 93.62-7.84 93.84-8.06 93.94-8.4L93.94-8.4Q94.47-8.94 94.47-9.08L94.47-9.08Q94.77-9.52 94.82-9.52L94.82-9.52Q95.21-10.16 95.35-10.3L95.35-10.3Q95.7-10.79 95.7-10.94L95.7-10.94Q96.04-11.43 96.06-11.45 96.09-11.47 96.09-11.57L96.09-11.57Q96.14-12.35 96.31-12.77 96.48-13.18 96.48-13.67L96.48-13.67Q96.43-14.16 96.35-14.26 96.28-14.36 96.28-14.45L96.28-14.45Q96.23-14.94 96.23-14.99L96.23-14.99Q96.18-15.33 96.14-15.41 96.09-15.48 96.09-15.58L96.09-15.58Q95.84-16.16 95.79-16.26 95.74-16.36 95.79-16.46L95.79-16.46Q95.5-16.89 95.5-16.99L95.5-16.99Q95.26-17.48 95.28-17.53 95.31-17.58 95.26-17.63L95.26-17.63Q94.96-18.16 94.96-18.31L94.96-18.31Q94.62-18.85 94.62-18.85L94.62-18.85Q94.28-19.38 94.18-19.56 94.08-19.73 93.99-19.92L93.99-19.92Q93.69-20.36 93.69-20.41L93.69-20.41Q93.6-20.56 93.55-20.65 93.5-20.75 93.4-20.9L93.4-20.9 93.06-21.34Q92.67-21.78 92.6-21.92 92.52-22.07 92.38-22.17L92.38-22.17Q91.94-22.66 91.86-22.73 91.79-22.8 91.69-22.85L91.69-22.85Q91.4-23.1 91.3-23.24L91.3-23.24Q90.76-23.54 90.72-23.58L90.72-23.58Q90.52-23.73 90.37-23.73 90.23-23.73 90.03-23.83L90.03-23.83Q89.79-23.68 89.52-23.71 89.25-23.73 89.06-23.54L89.06-23.54Q88.57-23.34 88.47-23.34L88.47-23.34Q87.93-23.05 87.93-23.05L87.93-23.05Q87.74-22.95 87.64-22.83 87.54-22.71 87.35-22.61L87.35-22.61Q86.91-22.31 86.91-22.27L86.91-22.27Q86.71-22.02 86.66-21.95 86.61-21.88 86.66-21.68L86.66-21.68Q86.13-21.34 86.08-21.29 86.03-21.24 85.88-21.19L85.88-21.19Q85.78-20.95 85.61-20.8 85.44-20.65 85.39-20.31L85.39-20.31Q85.1-20.02 84.86-19.87L84.86-19.87Q84.76-19.48 84.61-19.24L84.61-19.24Q84.42-18.9 84.42-18.82 84.42-18.75 84.32-18.7L84.32-18.7Q84.12-18.07 84.07-17.9 84.03-17.72 83.83-17.58L83.83-17.58Q83.68-16.94 83.59-16.72 83.49-16.5 83.39-16.31L83.39-16.31Q83.34-16.02 83.29-15.94 83.24-15.87 83.2-15.77L83.2-15.77Q83.15-15.19 83.1-15.14 83.05-15.09 83.15-14.99L83.15-14.99Q82.9-14.31 82.93-13.94 82.95-13.57 82.95-13.18L82.95-13.18Q83-12.94 83.05-12.77 83.1-12.6 83.05-12.4L83.05-12.4Q83-11.82 83.05-11.67 83.1-11.52 83.15-11.33L83.15-11.33Q83.24-11.13 83.27-10.96 83.29-10.79 83.34-10.69L83.34-10.69Q83.59-10.25 83.73-10.11L83.73-10.11Q83.98-9.72 84.17-9.52L84.17-9.52Q84.51-9.03 84.61-8.91 84.71-8.79 84.81-8.64L84.81-8.64Q84.9-8.54 85-8.45 85.1-8.35 85.2-8.2L85.2-8.2Q85.44-8.11 85.59-7.98 85.73-7.86 85.83-7.76L85.83-7.76Q85.98-7.47 86.15-7.32 86.32-7.18 86.47-7.13L86.47-7.13Q86.91-6.79 87.03-6.69 87.15-6.59 87.25-6.45L87.25-6.45Q87.39-6.35 87.59-6.23 87.79-6.1 87.93-5.91ZM115.37-27.2L115.76-27Q115.86-26.61 115.86-26.42L115.86-26.42Q115.91-25.93 115.88-25.78 115.86-25.63 115.96-25.54L115.96-25.54Q116.35-25.88 116.35-25.93 116.35-25.98 116.4-26.07L116.4-26.07Q116.79-26.37 116.96-26.49 117.13-26.61 117.23-26.81L117.23-26.81Q117.37-26.9 117.54-26.95 117.71-27 117.91-27.1L117.91-27.1Q118.3-27.29 118.52-27.27 118.74-27.25 118.94-27.39L118.94-27.39Q119.52-27.49 119.57-27.54L119.57-27.54Q119.86-27.64 119.99-27.61 120.11-27.59 120.2-27.64L120.2-27.64Q120.4-27.64 120.6-27.66 120.79-27.69 121.08-27.73L121.08-27.73Q121.38-27.78 121.6-27.76 121.82-27.73 122.16-27.64L122.16-27.64Q122.7-27.59 122.7-27.64L122.7-27.64Q123.13-27.44 123.18-27.42 123.23-27.39 123.33-27.39L123.33-27.39Q123.72-27.2 123.92-27.2L123.92-27.2Q124.11-27.1 124.23-27 124.36-26.9 124.55-26.81L124.55-26.81Q124.94-26.61 125.01-26.56 125.09-26.51 125.19-26.46L125.19-26.46Q125.77-26.27 125.87-26.17L125.87-26.17Q126.21-25.93 126.26-25.93 126.31-25.93 126.41-25.88L126.41-25.88Q126.75-25.59 126.92-25.51 127.09-25.44 127.19-25.34L127.19-25.34Q127.33-25.29 127.46-25.22 127.58-25.15 127.68-25.1L127.68-25.1Q128.21-24.71 128.36-24.54 128.51-24.37 128.75-24.27L128.75-24.27Q128.85-23.88 129.34-23.63L129.34-23.63Q129.58-23.34 129.68-23.24 129.78-23.14 129.87-23.1L129.87-23.1Q130.21-22.51 130.29-22.39 130.36-22.27 130.41-22.17L130.41-22.17Q130.65-21.83 130.65-21.75 130.65-21.68 130.75-21.68L130.75-21.68Q130.85-21.29 130.92-21.17 131-21.04 131.04-20.95L131.04-20.95 131.34-20.31Q131.39-20.17 131.58-19.68L131.58-19.68 131.73-19.04Q131.97-18.55 131.97-18.36 131.97-18.16 132.02-18.07L132.02-18.07Q132.07-17.68 132.17-17.38L132.17-17.38Q132.17-16.85 132.24-16.72 132.31-16.6 132.31-16.46L132.31-16.46Q132.36-15.97 132.39-15.97 132.41-15.97 132.41-15.92L132.41-15.92Q132.46-15.53 132.46-15.38L132.46-15.38Q132.46-14.75 132.51-14.58 132.56-14.4 132.61-14.21L132.61-14.21Q132.51-13.87 132.46-13.55 132.41-13.23 132.46-12.94L132.46-12.94Q132.51-12.5 132.49-12.48 132.46-12.45 132.46-12.4L132.46-12.4Q132.41-11.82 132.41-11.69 132.41-11.57 132.31-11.38L132.31-11.38Q132.27-11.28 132.24-11.08 132.22-10.89 132.17-10.69L132.17-10.69Q132.17-10.35 132.12-10.16L132.12-10.16Q132.02-9.81 132.07-9.67 132.12-9.52 132.07-9.42L132.07-9.42Q131.87-8.69 131.68-8.2L131.68-8.2Q131.63-8.06 131.61-7.89 131.58-7.71 131.44-7.62L131.44-7.62Q131.34-7.13 131.34-7.03 131.34-6.93 131.29-6.88L131.29-6.88Q131.24-6.69 131.19-6.45 131.14-6.2 130.95-6.1L130.95-6.1Q130.75-5.62 130.73-5.57 130.7-5.52 130.65-5.47L130.65-5.47Q130.46-5.18 130.41-5.05 130.36-4.93 130.31-4.83L130.31-4.83Q130.07-4.39 130.07-4.35L130.07-4.35Q129.82-3.91 129.68-3.69 129.53-3.47 129.38-3.27L129.38-3.27Q129.29-3.13 129.21-3.03 129.14-2.93 128.99-2.83L128.99-2.83Q128.65-2.39 128.36-2.1L128.36-2.1Q128.07-1.61 128.02-1.56L128.02-1.56Q127.68-1.22 127.65-1.22 127.63-1.22 127.63-1.17L127.63-1.17Q127.24-0.83 127.04-0.68 126.85-0.54 126.7-0.44L126.7-0.44Q126.45-0.39 126.28-0.37 126.11-0.34 126.02-0.1L126.02-0.1Q125.87-0.05 125.48 0.15L125.48 0.15Q125.09 0.29 125.04 0.34 124.99 0.39 124.84 0.44L124.84 0.44Q124.5 0.54 124.31 0.61 124.11 0.68 123.96 0.68L123.96 0.68 123.09 0.63Q122.84 0.63 122.67 0.61 122.5 0.59 122.3 0.59L122.3 0.59Q122.11 0.59 121.99 0.61 121.87 0.63 121.62 0.59L121.62 0.59Q121.03 0.63 120.91 0.56 120.79 0.49 120.64 0.49L120.64 0.49Q120.11 0.44 119.99 0.37 119.86 0.29 119.77 0.39L119.77 0.39Q119.62 0.29 119.5 0.24 119.37 0.2 119.13 0.2L119.13 0.2Q118.54-0.15 118.35-0.15 118.15-0.15 118.06-0.24L118.06-0.24Q117.71-0.49 117.42-0.68L117.42-0.68Q116.98-0.93 116.96-1 116.93-1.07 116.84-1.12L116.84-1.12 116.3-1.46Q115.96-1.76 115.81-1.9L115.81-1.9Q115.42-1.51 115.4-1.32 115.37-1.12 115.37-0.88L115.37-0.88Q115.37-0.73 115.4-0.59 115.42-0.44 115.42-0.29L115.42-0.29Q115.47 0.1 115.44 0.46 115.42 0.83 115.47 1.22L115.47 1.22Q115.47 1.32 115.52 1.56 115.57 1.81 115.57 1.9L115.57 1.9Q115.57 2 115.54 2.22 115.52 2.44 115.52 2.54L115.52 2.54Q115.62 2.98 115.62 3.27 115.62 3.56 115.62 3.66L115.62 3.66 115.62 4.69Q115.62 4.79 115.64 5.05 115.66 5.32 115.66 5.42L115.66 5.42Q115.71 5.62 115.71 5.79 115.71 5.96 115.81 6.1L115.81 6.1Q115.71 6.35 115.81 6.71 115.91 7.08 115.86 7.37L115.86 7.37 115.96 8.11Q115.86 8.5 115.86 8.64L115.86 8.64Q115.86 8.74 115.88 8.89 115.91 9.03 115.91 9.18L115.91 9.18Q115.81 9.72 115.83 9.89 115.86 10.06 115.81 10.21L115.81 10.21Q115.81 10.45 115.74 10.62 115.66 10.79 115.57 10.99L115.57 10.99Q115.37 11.28 115.35 11.45 115.32 11.62 115.18 11.72L115.18 11.72Q115.03 11.87 114.66 11.87 114.3 11.87 114.2 11.87L114.2 11.87Q113.52 11.87 113.15 11.91 112.78 11.96 112.54 11.82L112.54 11.82Q112.15 11.96 111.86 11.96 111.56 11.96 111.07 11.96L111.07 11.96Q110.54 12.06 110.32 11.96 110.1 11.87 109.85 11.96L109.85 11.96Q109.51 12.06 109.34 11.99 109.17 11.91 108.97 11.91L108.97 11.91Q108.49 11.96 108.36 11.91 108.24 11.87 108.05 11.82L108.05 11.82Q107.46 11.77 107.51 11.74 107.56 11.72 107.51 11.62L107.51 11.62Q107.27 11.47 107.19 11.45 107.12 11.43 107.02 11.38L107.02 11.38Q106.73 10.69 106.66 10.35 106.58 10.01 106.63 9.67L106.63 9.67Q106.78 9.03 106.83 8.98L106.83 8.98Q106.92 8.45 106.92 8.15 106.92 7.86 107.02 7.57L107.02 7.57Q107.17 7.03 107.22 6.93 107.27 6.84 107.27 6.74L107.27 6.74Q107.31 6.49 107.29 6.18 107.27 5.86 107.27 5.62L107.27 5.62Q107.27 5.32 107.29 5.08 107.31 4.83 107.36 4.74L107.36 4.74Q107.41 4.59 107.46 4.39 107.51 4.2 107.41 4L107.41 4Q107.61 3.76 107.58 3.34 107.56 2.93 107.56 2.59L107.56 2.59Q107.56 2.49 107.58 2.32 107.61 2.15 107.61 2.05L107.61 2.05Q107.61 1.61 107.63 1.32 107.66 1.03 107.66 0.93L107.66 0.93 107.61 0.34Q107.61 0.15 107.58-0.02 107.56-0.2 107.66-0.34L107.66-0.34Q107.56-0.54 107.63-0.76 107.7-0.98 107.7-1.27L107.7-1.27Q107.66-1.76 107.73-2.1 107.8-2.44 107.7-2.59L107.7-2.59Q107.7-2.98 107.68-3.13 107.66-3.27 107.66-3.37L107.66-3.37Q107.61-3.91 107.66-3.93 107.7-3.96 107.7-4.05L107.7-4.05Q107.66-4.59 107.68-4.59 107.7-4.59 107.7-4.64L107.7-4.64 107.7-5.37Q107.75-5.86 107.7-6.45L107.7-6.45Q107.7-6.59 107.73-6.74 107.75-6.88 107.75-6.98L107.75-6.98Q107.75-7.42 107.7-7.71 107.66-8.01 107.66-8.4L107.66-8.4Q107.75-8.69 107.73-8.86 107.7-9.03 107.75-9.28L107.75-9.28Q107.85-9.57 107.83-9.69 107.8-9.81 107.85-9.86L107.85-9.86Q107.85-10.5 107.9-10.91 107.95-11.33 107.85-11.57L107.85-11.57Q107.95-11.82 107.92-12.08 107.9-12.35 107.9-12.65L107.9-12.65Q107.9-12.79 107.88-12.94 107.85-13.09 107.85-13.18L107.85-13.18 107.95-13.72Q107.9-13.77 107.9-13.99 107.9-14.21 107.9-14.31L107.9-14.31Q107.9-14.55 107.9-14.77 107.9-14.99 107.95-15.23L107.95-15.23Q108-15.72 108-15.77L108-15.77Q107.9-16.21 107.95-16.24 108-16.26 108-16.31L108-16.31Q108.1-16.75 108.05-17.02 108-17.29 108.1-17.48L108.1-17.48Q108-17.72 108.02-17.97 108.05-18.21 108.05-18.55L108.05-18.55Q108-19.09 107.95-19.12 107.9-19.14 107.9-19.24L107.9-19.24Q108-19.38 108-19.82L108-19.82Q107.9-20.26 107.92-20.36 107.95-20.46 107.95-20.56L107.95-20.56Q107.95-20.65 107.85-21.14L107.85-21.14Q107.75-21.97 107.66-22.34 107.56-22.71 107.51-23.05L107.51-23.05Q107.51-23.29 107.51-23.49 107.51-23.68 107.46-23.93L107.46-23.93Q107.41-24.56 107.27-24.66L107.27-24.66Q107.27-25.24 107.29-25.37 107.31-25.49 107.31-25.59L107.31-25.59Q107.31-25.73 107.27-25.88 107.22-26.03 107.22-26.22L107.22-26.22Q107.36-26.61 107.34-26.68 107.31-26.76 107.36-26.81L107.36-26.81Q107.66-27.15 107.75-27.29L107.75-27.29Q108.14-27.49 108.39-27.49L108.39-27.49 109.02-27.59Q109.56-27.54 109.68-27.59 109.8-27.64 109.9-27.64L109.9-27.64Q110.15-27.59 110.34-27.59 110.54-27.59 110.73-27.59L110.73-27.59Q111.22-27.59 111.29-27.61 111.37-27.64 111.46-27.64L111.46-27.64Q111.9-27.59 112.2-27.49L112.2-27.49Q112.73-27.39 112.76-27.37 112.78-27.34 112.83-27.34L112.83-27.34Q112.98-27.29 113.17-27.32 113.37-27.34 113.52-27.34L113.52-27.34 114.1-27.39Q114.39-27.29 114.52-27.32 114.64-27.34 114.74-27.34L114.74-27.34Q114.98-27.34 115.1-27.29 115.22-27.25 115.37-27.2L115.37-27.2ZM124.84-16.8L124.5-16.99Q124.6-17.19 124.48-17.31 124.36-17.43 124.31-17.58L124.31-17.58Q124.26-18.07 124.18-18.09 124.11-18.12 124.06-18.21L124.06-18.21Q123.87-18.65 123.79-18.7 123.72-18.75 123.62-18.85L123.62-18.85 123.09-19.29Q122.6-19.58 122.6-19.6 122.6-19.63 122.55-19.68L122.55-19.68Q122.21-19.92 122.16-20 122.11-20.07 122.01-19.97L122.01-19.97Q121.87-20.12 121.72-20.19 121.57-20.26 121.43-20.36L121.43-20.36 120.84-20.7Q120.16-20.65 119.79-20.73 119.42-20.8 119.13-20.7L119.13-20.7Q119.03-20.8 118.84-20.78 118.64-20.75 118.54-20.75L118.54-20.75Q117.96-20.65 117.91-20.61L117.91-20.61Q117.52-20.26 117.4-20.26 117.28-20.26 117.18-20.17L117.18-20.17Q116.93-20.07 116.76-19.92 116.59-19.78 116.35-19.63L116.35-19.63Q116.25-19.48 116.15-19.36 116.05-19.24 115.96-19.09L115.96-19.09Q115.62-18.46 115.71-18.31L115.71-18.31Q115.42-17.72 115.47-17.53L115.47-17.53Q115.52-17.14 115.54-16.92 115.57-16.7 115.57-16.46L115.57-16.46Q115.42-15.63 115.4-15.21 115.37-14.79 115.42-14.5L115.42-14.5Q115.42-13.96 115.47-13.89 115.52-13.82 115.42-13.82L115.42-13.82Q115.52-13.43 115.49-13.16 115.47-12.89 115.47-12.65L115.47-12.65Q115.52-12.4 115.47-12.21 115.42-12.01 115.37-11.91L115.37-11.91Q115.42-11.43 115.42-11.25 115.42-11.08 115.52-10.94L115.52-10.94Q115.42-10.6 115.44-10.3 115.47-10.01 115.37-9.77L115.37-9.77Q115.81-9.38 115.88-9.28 115.96-9.18 115.96-9.08L115.96-9.08Q116.59-8.54 116.84-8.5L116.84-8.5Q117.23-8.06 117.35-7.93 117.47-7.81 117.62-7.71L117.62-7.71Q117.96-7.52 118.01-7.45 118.06-7.37 118.15-7.42L118.15-7.42Q118.35-7.23 118.4-7.15 118.45-7.08 118.54-7.03L118.54-7.03Q118.94-6.84 119.13-6.74L119.13-6.74Q119.57-6.54 119.62-6.52 119.67-6.49 119.77-6.49L119.77-6.49Q120.11-6.3 120.18-6.25 120.25-6.2 120.35-6.3L120.35-6.3Q120.45-6.2 120.67-6.13 120.89-6.05 120.94-6.1L120.94-6.1Q121.43-6.1 121.57-6.08 121.72-6.05 121.82-6.05L121.82-6.05Q122.26-6.25 122.3-6.3L122.3-6.3Q122.6-6.3 122.79-6.42 122.99-6.54 123.23-6.59L123.23-6.59Q123.38-6.84 123.62-6.98L123.62-6.98Q124.01-7.67 124.11-7.81 124.21-7.96 124.21-8.2L124.21-8.2 124.55-8.79Q124.75-9.38 124.7-9.4 124.65-9.42 124.7-9.52L124.7-9.52Q124.79-9.81 124.87-9.89 124.94-9.96 124.79-10.06L124.79-10.06Q125.14-10.89 125.04-11.13L125.04-11.13Q125.14-11.47 125.23-11.67 125.33-11.87 125.33-11.96L125.33-11.96 125.33-13.18Q125.28-13.72 125.31-13.77 125.33-13.82 125.33-13.92L125.33-13.92Q125.23-14.21 125.26-14.33 125.28-14.45 125.28-14.55L125.28-14.55Q125.28-15.09 125.23-15.21 125.19-15.33 125.14-15.43L125.14-15.43Q125.09-15.87 125.04-15.87 124.99-15.87 125.04-15.97L125.04-15.97Q125.04-16.31 124.92-16.46 124.79-16.6 124.84-16.8L124.84-16.8Z" opacity="1" transform="matrix(1,0,0,1,0,0)" fill="#130912" class="wordmark-text-0" data-fill-palette-color="primary" id="text-0"></path></svg></g></svg></g></svg></g></svg></g><g transform="matrix(1,0,0,1,46.437524923620586,0)"><svg viewBox="0 0 99.12495015275883 100.23871363762129" height="100.23871363762129" width="99.12495015275883"><g><svg xmlns="http://www.w3.org/2000/svg" xmlns:xlink="http://www.w3.org/1999/xlink" version="1.1" x="0" y="0" viewBox="5.5 5 89 90" enable-background="new 0 0 100 100" xml:space="preserve" height="100.23871363762129" width="99.12495015275883" class="icon-icon-0" data-fill-palette-color="accent" id="icon-0"><path d="M92.46 29.21c1.28-1.74 2.04-3.88 2.04-6.2 0-0.13-0.01-0.27-0.04-0.4l-0.01-0.04-1.99-9.96C92.27 11.67 91.45 11 90.5 11h-80c-0.88 0-1.66 0.58-1.92 1.43l-2.99 9.98-0.01 0.02C5.52 22.62 5.5 22.81 5.5 23c0 2.86 1.15 5.45 3 7.34v57.08c0 1.1 0.9 2 2 2s2-0.9 2-2V32.9c1.09 0.39 2.27 0.6 3.5 0.6 3.5 0 6.6-1.72 8.5-4.35 1.9 2.63 5 4.35 8.5 4.35s6.6-1.72 8.5-4.35c1.9 2.63 5 4.35 8.5 4.35s6.6-1.72 8.5-4.35c1.9 2.63 5 4.35 8.5 4.35s6.6-1.72 8.5-4.35c1.9 2.63 5 4.35 8.5 4.35 1.61 0 3.14-0.36 4.5-1.02v54.94c0 1.1 0.9 2 2 2s2-0.9 2-2v-57.8c0-0.14-0.01-0.27-0.04-0.4C92.46 29.21 92.46 29.21 92.46 29.21zM84 29.5c-3.58 0-6.5-2.92-6.5-6.5 0-1.1-0.9-2-2-2s-2 0.9-2 2c0 3.58-2.92 6.5-6.5 6.5s-6.5-2.92-6.5-6.5c0-1.1-0.9-2-2-2s-2 0.9-2 2c0 3.58-2.92 6.5-6.5 6.5s-6.5-2.92-6.5-6.5c0-1.1-0.9-2-2-2s-2 0.9-2 2c0 3.58-2.92 6.5-6.5 6.5s-6.5-2.92-6.5-6.5c0-1.1-0.9-2-2-2s-2 0.9-2 2c0 3.58-2.92 6.5-6.5 6.5-3.49 0-6.36-2.78-6.49-6.24L11.99 15h76.87l1.63 8.16C90.41 26.67 87.53 29.5 84 29.5zM92.5 25.5M75.5 25.5M92.5 25.5M7.5 25.5M88.5 9h-76c-1.104 0-2-0.896-2-2s0.896-2 2-2h76c1.104 0 2 0.896 2 2S89.604 9 88.5 9zM92.5 95h-85c-1.104 0-2-0.896-2-2s0.896-2 2-2h85c1.104 0 2 0.896 2 2S93.604 95 92.5 95zM38.5 87.208h-20c-1.104 0-2-0.896-2-2v-42c0-1.104 0.896-2 2-2h20c1.104 0 2 0.896 2 2v42C40.5 86.312 39.604 87.208 38.5 87.208zM20.5 83.208h16v-38h-16V83.208zM82.5 87.208h-36c-1.104 0-2-0.896-2-2v-42c0-1.104 0.896-2 2-2h36c1.104 0 2 0.896 2 2v42C84.5 86.312 83.604 87.208 82.5 87.208zM48.5 83.208h32v-38h-32V83.208zM33.75 66.208c0 1.105-0.895 2-2 2-1.105 0-2-0.895-2-2s0.895-2 2-2C32.855 64.208 33.75 65.104 33.75 66.208zM58.539 68.669c-0.512 0-1.023-0.195-1.414-0.586-0.781-0.781-0.781-2.048 0-2.828l4.922-4.921c0.781-0.781 2.047-0.781 2.828 0s0.781 2.048 0 2.828l-4.922 4.921C59.562 68.474 59.051 68.669 58.539 68.669zM65.539 68.669c-0.512 0-1.023-0.195-1.414-0.586-0.781-0.781-0.781-2.048 0-2.828l4.922-4.921c0.781-0.781 2.047-0.781 2.828 0s0.781 2.048 0 2.828l-4.922 4.921C66.562 68.474 66.051 68.669 65.539 68.669z" fill="#e77917" data-fill-palette-color="accent"></path></svg></g></svg></g><g></g></svg></g></svg></g></svg></g></svg></g><defs></defs></svg><rect width="320" height="360" fill="none" stroke="none" visibility="hidden"></rect></g></svg></g></svg>